<svg width="26" height="26" viewBox="0 0 26 26" fill="none" xmlns="http://www.w3.org/2000/svg">
<path d="M26.0591 16.3167C26.0003 16.1683 25.8992 16.0412 25.7687 15.9519C25.6383 15.8625 25.4846 15.815 25.3273 15.8154H24.9197C24.2297 15.816 23.5512 15.996 22.9487 16.3384L19.972 18.0326H19.123C19.0241 17.4825 18.739 16.9851 18.3172 16.6268C17.8954 16.2685 17.3635 16.072 16.8141 16.0714H11.4528C11.3918 16.0715 11.3314 16.085 11.276 16.1112C11.2206 16.1374 11.1715 16.1755 11.132 16.223L9.50765 18.1826C9.46868 18.1358 9.42017 18.0981 9.36549 18.0722C9.3108 18.0463 9.25124 18.0328 9.19093 18.0326H1.2438C1.13252 18.0326 1.0258 18.0776 0.947111 18.1576C0.868425 18.2377 0.824219 18.3464 0.824219 18.4596C0.824219 18.5729 0.868425 18.6815 0.947111 18.7616C1.0258 18.8417 1.13252 18.8867 1.2438 18.8867H6.3699V25.0075H1.2438C1.13252 25.0075 1.0258 25.0525 0.947111 25.1326C0.868425 25.2127 0.824219 25.3213 0.824219 25.4346C0.824219 25.5479 0.868425 25.6565 0.947111 25.7366C1.0258 25.8167 1.13252 25.8617 1.2438 25.8617H9.19093C9.30221 25.8617 9.40893 25.8167 9.48762 25.7366C9.5663 25.6565 9.61051 25.5479 9.61051 25.4346V23.3866L18.1671 22.9869C18.1755 22.9869 18.1836 22.9869 18.1911 22.9849C19.5368 22.8388 20.7953 22.2373 21.7652 21.2766L25.8788 17.194C25.9914 17.0828 26.0687 16.9398 26.1008 16.7834C26.1329 16.6271 26.1184 16.4646 26.0591 16.3167V16.3167ZM8.7723 25.0075H7.20906V18.8867H8.7723V25.0075ZM21.1802 20.6663C20.3484 21.4898 19.2699 22.0065 18.1163 22.1342L9.61147 22.5317V19.3836L11.6494 16.9258H16.8141C17.1579 16.9266 17.4912 17.0467 17.7589 17.2664C18.0266 17.486 18.2126 17.792 18.2863 18.1338L14.0346 19.1962C13.9351 19.2211 13.8481 19.2823 13.7899 19.368C13.7317 19.4538 13.7063 19.5583 13.7186 19.6618C13.7308 19.7653 13.7798 19.8607 13.8563 19.9299C13.9329 19.9992 14.0317 20.0376 14.1341 20.0379C14.1679 20.0379 14.2017 20.0337 14.2345 20.0254L18.7914 18.8867H20.0814C20.153 18.8868 20.2235 18.8681 20.2861 18.8325L23.3584 17.084C23.8357 16.8124 24.3732 16.6696 24.92 16.6691H25.2077L21.1802 20.6663Z" fill="#AD1E23"/>
<path d="M17.8242 14.7725C19.2087 14.7725 20.5621 14.3619 21.7132 13.5927C22.8644 12.8236 23.7616 11.7303 24.2914 10.4512C24.8212 9.17216 24.9598 7.7647 24.6897 6.40683C24.4196 5.04896 23.7529 3.80168 22.774 2.82272C21.795 1.84375 20.5477 1.17706 19.1898 0.906967C17.832 0.636871 16.4245 0.775494 15.1454 1.30531C13.8664 1.83512 12.7731 2.73233 12.0039 3.88347C11.2348 5.03462 10.8242 6.38799 10.8242 7.77246C10.8264 9.62832 11.5645 11.4076 12.8768 12.7198C14.1891 14.0321 15.9684 14.7703 17.8242 14.7725V14.7725ZM17.8242 1.7171C19.0219 1.7171 20.1926 2.07224 21.1884 2.73761C22.1842 3.40298 22.9603 4.3487 23.4186 5.45517C23.877 6.56165 23.9969 7.77918 23.7632 8.9538C23.5296 10.1284 22.9529 11.2074 22.106 12.0543C21.2591 12.9011 20.1802 13.4778 19.0056 13.7115C17.8309 13.9451 16.6134 13.8252 15.5069 13.3669C14.4005 12.9086 13.4547 12.1324 12.7894 11.1366C12.124 10.1408 11.7689 8.9701 11.7689 7.77246C11.7707 6.16705 12.4093 4.62792 13.5445 3.49272C14.6797 2.35752 16.2188 1.71895 17.8242 1.7171V1.7171Z" fill="#AD1E23"/>
<path d="M16.0116 7.5912C16.1481 7.59934 16.289 7.60342 16.4342 7.60342C16.5824 7.60342 16.7262 7.59391 16.8656 7.5749C17.008 7.55318 17.143 7.51924 17.2708 7.47307C17.3987 7.42691 17.5134 7.36309 17.6151 7.28163C17.7167 7.20016 17.7995 7.09833 17.8634 6.97613C17.9302 6.85121 17.9724 6.70186 17.9898 6.52806H15.8242C15.8329 6.50905 15.8562 6.46968 15.8939 6.40994C15.9346 6.34748 15.9767 6.2823 16.0203 6.21442C16.0726 6.13567 16.1307 6.05013 16.1946 5.9578H17.8809C17.8809 5.88719 17.8446 5.81659 17.7719 5.74598C17.6993 5.67266 17.6107 5.60749 17.5061 5.55046C17.4045 5.49344 17.2999 5.44727 17.1924 5.41197C17.0849 5.37395 16.9963 5.35495 16.9266 5.35495H15.8242C15.8358 5.32236 15.8605 5.27348 15.8983 5.20831C15.939 5.14313 15.9811 5.07932 16.0247 5.01686C16.0682 4.95169 16.106 4.89466 16.1379 4.84578C16.1728 4.7969 16.1917 4.77246 16.1946 4.77246H19.8242C19.8242 4.77246 19.8155 4.7874 19.7981 4.81727C19.7836 4.84714 19.7632 4.8838 19.7371 4.92725C19.7109 4.96798 19.6819 5.01414 19.6499 5.06574C19.618 5.11462 19.5875 5.16078 19.5584 5.20423C19.5323 5.24768 19.509 5.28434 19.4887 5.31421C19.4713 5.34137 19.4626 5.35495 19.4626 5.35495H18.5083C18.5693 5.45271 18.6216 5.55182 18.6652 5.6523C18.7117 5.75006 18.7407 5.85189 18.7523 5.9578H19.8242L19.4626 6.52806H18.7915C18.7567 6.78061 18.6797 6.99649 18.5606 7.17572C18.4444 7.35495 18.3006 7.5043 18.1292 7.62378C17.9607 7.74055 17.7719 7.83152 17.5628 7.8967C17.3536 7.95915 17.1387 8.0026 16.9179 8.02704C16.9179 8.02976 16.9223 8.03926 16.931 8.05556C16.9426 8.06913 16.9557 8.08543 16.9702 8.10444C16.9847 8.12616 17.0021 8.14924 17.0225 8.17368L18.9571 10.6706V10.7725H18.1292L16.0116 8.12888V7.5912Z" fill="#AD1E23"/>
</svg>
